999
Floorplan
0
SECTION
2
HEADER
9
$ACADVER
1
AC1021
9
$HANDSEED
5
56
0
ENDSEC
0
SECTION
2
CLASSES
0
ENDSEC
0
SECTION
2
TABLES
0
TABLE
2
VPORT
5
2
100
AcDbSymbolTable
70
1
0
VPORT
5
1
100
AcDbSymbolTableRecord
100
AcDbViewportTableRecord
2
*ACTIVE
10
0
20
0
11
1
21
1
12
500.0
22
500.0
40
1000.0
70
0
0
ENDTAB
0
TABLE
2
LTYPE
5
3
100
AcDbSymbolTable
70
3
0
LTYPE
5
b
100
AcDbSymbolTableRecord
100
AcDbLinetypeTableRecord
2
Solid
70
0
72
65
73
0
3

0
LTYPE
5
c
100
AcDbSymbolTableRecord
100
AcDbLinetypeTableRecord
2
ByBlock
70
0
72
65
73
0
3

0
LTYPE
5
d
100
AcDbSymbolTableRecord
100
AcDbLinetypeTableRecord
2
ByLayer
70
0
72
65
73
0
3

0
ENDTAB
0
TABLE
2
LAYER
5
4
100
AcDbSymbolTable
70
1
0
LAYER
5
e
100
AcDbSymbolTableRecord
100
AcDbLayerTableRecord
2
0
70
0
390
0
0
ENDTAB
0
TABLE
2
STYLE
5
5
100
AcDbSymbolTable
70
0
0
ENDTAB
0
TABLE
2
VIEW
5
6
100
AcDbSymbolTable
70
0
0
ENDTAB
0
TABLE
2
UCS
5
7
100
AcDbSymbolTable
70
0
0
ENDTAB
0
TABLE
2
APPID
5
8
100
AcDbSymbolTable
70
1
0
APPID
5
f
100
AcDbSymbolTableRecord
100
AcDbRegAppTableRecord
2
ACAD
70
0
0
ENDTAB
0
TABLE
2
DIMSTYLE
5
9
100
AcDbSymbolTable
70
0
100
AcDbDimStyleTable
71
1
0
ENDTAB
0
TABLE
2
BLOCK_RECORD
5
a
100
AcDbSymbolTable
70
2
0
BLOCK_RECORD
5
10
100
AcDbSymbolTableRecord
100
AcDbBlockTableRecord
2
*Model_Space
70
0
280
1
281
0
0
BLOCK_RECORD
5
11
100
AcDbSymbolTableRecord
100
AcDbBlockTableRecord
2
*Paper_Space
70
0
280
1
281
0
0
ENDTAB
0
ENDSEC
0
SECTION
2
BLOCKS
0
BLOCK
5
12
100
AcDbEntity
100
AcDbBlockBegin
2
*Model_Space
70
0
10
0
20
0
30
0
3
*Model_Space
1

0
ENDBLK
5
13
100
AcDbEntity
100
AcDbBlockEnd
0
BLOCK
5
14
100
AcDbEntity
100
AcDbBlockBegin
2
*Paper_Space
70
0
10
0
20
0
30
0
3
*Paper_Space
1

0
ENDBLK
5
15
100
AcDbEntity
100
AcDbBlockEnd
0
ENDSEC
0
SECTION
2
ENTITIES
0
LWPOLYLINE
5
18
100
AcDbEntity
100
AcDbPolyline
90
4
70
1
10
0.0
20
0.0
30
0.0
10
60.0
20
0.0
30
0.0
10
60.0
20
-60.0
30
0.0
10
0.0
20
-60.0
30
0.0
6
Solid
370
100
62
0
0
LWPOLYLINE
5
1a
100
AcDbEntity
100
AcDbPolyline
90
4
70
1
10
0.0
20
0.0
30
0.0
10
33.0
20
0.0
30
0.0
10
33.0
20
-60.0
30
0.0
10
0.0
20
-60.0
30
0.0
6
Solid
370
100
62
0
0
LWPOLYLINE
5
1c
100
AcDbEntity
100
AcDbPolyline
90
4
70
1
10
33.0
20
0.0
30
0.0
10
60.0
20
0.0
30
0.0
10
60.0
20
-60.0
30
0.0
10
33.0
20
-60.0
30
0.0
6
Solid
370
100
62
0
0
LWPOLYLINE
5
1e
100
AcDbEntity
100
AcDbPolyline
90
4
70
1
10
32.95
20
0.0
30
0.0
10
33.05
20
0.0
30
0.0
10
33.05
20
-0.5
30
0.0
10
32.95
20
-0.5
30
0.0
6
Solid
370
100
62
0
0
LWPOLYLINE
5
20
100
AcDbEntity
100
AcDbPolyline
90
4
70
1
10
0.0
20
0.0
30
0.0
10
33.0
20
0.0
30
0.0
10
33.0
20
-28.0
30
0.0
10
0.0
20
-28.0
30
0.0
6
Solid
370
100
62
0
0
LWPOLYLINE
5
22
100
AcDbEntity
100
AcDbPolyline
90
4
70
1
10
0.0
20
-28.0
30
0.0
10
33.0
20
-28.0
30
0.0
10
33.0
20
-60.0
30
0.0
10
0.0
20
-60.0
30
0.0
6
Solid
370
100
62
0
0
LWPOLYLINE
5
24
100
AcDbEntity
100
AcDbPolyline
90
4
70
1
10
0.0
20
-27.95
30
0.0
10
0.5
20
-27.95
30
0.0
10
0.5
20
-28.05
30
0.0
10
0.0
20
-28.05
30
0.0
6
Solid
370
100
62
0
0
LWPOLYLINE
5
26
100
AcDbEntity
100
AcDbPolyline
90
4
70
1
10
33.0
20
0.0
30
0.0
10
60.0
20
0.0
30
0.0
10
60.0
20
-26.0
30
0.0
10
33.0
20
-26.0
30
0.0
6
Solid
370
100
62
0
0
LWPOLYLINE
5
28
100
AcDbEntity
100
AcDbPolyline
90
4
70
1
10
33.0
20
-26.0
30
0.0
10
60.0
20
-26.0
30
0.0
10
60.0
20
-60.0
30
0.0
10
33.0
20
-60.0
30
0.0
6
Solid
370
100
62
0
0
LWPOLYLINE
5
2a
100
AcDbEntity
100
AcDbPolyline
90
4
70
1
10
33.0
20
-25.95
30
0.0
10
33.5
20
-25.95
30
0.0
10
33.5
20
-26.05
30
0.0
10
33.0
20
-26.05
30
0.0
6
Solid
370
100
62
0
0
LWPOLYLINE
5
2c
100
AcDbEntity
100
AcDbPolyline
90
4
70
1
10
0.0
20
0.0
30
0.0
10
33.0
20
0.0
30
0.0
10
33.0
20
-15.0
30
0.0
10
0.0
20
-15.0
30
0.0
6
Solid
370
100
62
0
0
LWPOLYLINE
5
2e
100
AcDbEntity
100
AcDbPolyline
90
4
70
1
10
0.0
20
-15.0
30
0.0
10
33.0
20
-15.0
30
0.0
10
33.0
20
-28.0
30
0.0
10
0.0
20
-28.0
30
0.0
6
Solid
370
100
62
0
0
LWPOLYLINE
5
30
100
AcDbEntity
100
AcDbPolyline
90
4
70
1
10
0.0
20
-14.95
30
0.0
10
0.5
20
-14.95
30
0.0
10
0.5
20
-15.05
30
0.0
10
0.0
20
-15.05
30
0.0
6
Solid
370
100
62
0
0
LWPOLYLINE
5
32
100
AcDbEntity
100
AcDbPolyline
90
4
70
1
10
0.0
20
-28.0
30
0.0
10
18.0
20
-28.0
30
0.0
10
18.0
20
-60.0
30
0.0
10
0.0
20
-60.0
30
0.0
6
Solid
370
100
62
0
0
LWPOLYLINE
5
34
100
AcDbEntity
100
AcDbPolyline
90
4
70
1
10
18.0
20
-28.0
30
0.0
10
33.0
20
-28.0
30
0.0
10
33.0
20
-60.0
30
0.0
10
18.0
20
-60.0
30
0.0
6
Solid
370
100
62
0
0
LWPOLYLINE
5
36
100
AcDbEntity
100
AcDbPolyline
90
4
70
1
10
17.95
20
-28.0
30
0.0
10
18.05
20
-28.0
30
0.0
10
18.05
20
-28.5
30
0.0
10
17.95
20
-28.5
30
0.0
6
Solid
370
100
62
0
0
LWPOLYLINE
5
38
100
AcDbEntity
100
AcDbPolyline
90
4
70
1
10
33.0
20
-26.0
30
0.0
10
60.0
20
-26.0
30
0.0
10
60.0
20
-46.0
30
0.0
10
33.0
20
-46.0
30
0.0
6
Solid
370
100
62
0
0
LWPOLYLINE
5
3a
100
AcDbEntity
100
AcDbPolyline
90
4
70
1
10
33.0
20
-46.0
30
0.0
10
60.0
20
-46.0
30
0.0
10
60.0
20
-60.0
30
0.0
10
33.0
20
-60.0
30
0.0
6
Solid
370
100
62
0
0
LWPOLYLINE
5
3c
100
AcDbEntity
100
AcDbPolyline
90
4
70
1
10
33.0
20
-45.95
30
0.0
10
33.5
20
-45.95
30
0.0
10
33.5
20
-46.05
30
0.0
10
33.0
20
-46.05
30
0.0
6
Solid
370
100
62
0
0
LWPOLYLINE
5
3e
100
AcDbEntity
100
AcDbPolyline
90
4
70
1
10
0.0
20
0.0
30
0.0
10
14.0
20
0.0
30
0.0
10
14.0
20
-15.0
30
0.0
10
0.0
20
-15.0
30
0.0
6
Solid
370
100
62
0
0
LWPOLYLINE
5
40
100
AcDbEntity
100
AcDbPolyline
90
4
70
1
10
14.0
20
0.0
30
0.0
10
33.0
20
0.0
30
0.0
10
33.0
20
-15.0
30
0.0
10
14.0
20
-15.0
30
0.0
6
Solid
370
100
62
0
0
LWPOLYLINE
5
42
100
AcDbEntity
100
AcDbPolyline
90
4
70
1
10
13.95
20
0.0
30
0.0
10
14.05
20
0.0
30
0.0
10
14.05
20
-0.5
30
0.0
10
13.95
20
-0.5
30
0.0
6
Solid
370
100
62
0
0
LWPOLYLINE
5
44
100
AcDbEntity
100
AcDbPolyline
90
4
70
1
10
0.0
20
-15.0
30
0.0
10
15.0
20
-15.0
30
0.0
10
15.0
20
-28.0
30
0.0
10
0.0
20
-28.0
30
0.0
6
Solid
370
100
62
0
0
LWPOLYLINE
5
46
100
AcDbEntity
100
AcDbPolyline
90
4
70
1
10
15.0
20
-15.0
30
0.0
10
33.0
20
-15.0
30
0.0
10
33.0
20
-28.0
30
0.0
10
15.0
20
-28.0
30
0.0
6
Solid
370
100
62
0
0
LWPOLYLINE
5
48
100
AcDbEntity
100
AcDbPolyline
90
4
70
1
10
14.95
20
-15.0
30
0.0
10
15.05
20
-15.0
30
0.0
10
15.05
20
-15.5
30
0.0
10
14.95
20
-15.5
30
0.0
6
Solid
370
100
62
0
0
LWPOLYLINE
5
4a
100
AcDbEntity
100
AcDbPolyline
90
4
70
1
10
0.0
20
-28.0
30
0.0
10
18.0
20
-28.0
30
0.0
10
18.0
20
-44.0
30
0.0
10
0.0
20
-44.0
30
0.0
6
Solid
370
100
62
0
0
LWPOLYLINE
5
4c
100
AcDbEntity
100
AcDbPolyline
90
4
70
1
10
0.0
20
-44.0
30
0.0
10
18.0
20
-44.0
30
0.0
10
18.0
20
-60.0
30
0.0
10
0.0
20
-60.0
30
0.0
6
Solid
370
100
62
0
0
LWPOLYLINE
5
4e
100
AcDbEntity
100
AcDbPolyline
90
4
70
1
10
0.0
20
-43.95
30
0.0
10
0.5
20
-43.95
30
0.0
10
0.5
20
-44.05
30
0.0
10
0.0
20
-44.05
30
0.0
6
Solid
370
100
62
0
0
LWPOLYLINE
5
50
100
AcDbEntity
100
AcDbPolyline
90
4
70
1
10
18.0
20
-28.0
30
0.0
10
33.0
20
-28.0
30
0.0
10
33.0
20
-43.0
30
0.0
10
18.0
20
-43.0
30
0.0
6
Solid
370
100
62
0
0
LWPOLYLINE
5
52
100
AcDbEntity
100
AcDbPolyline
90
4
70
1
10
18.0
20
-43.0
30
0.0
10
33.0
20
-43.0
30
0.0
10
33.0
20
-60.0
30
0.0
10
18.0
20
-60.0
30
0.0
6
Solid
370
100
62
0
0
LWPOLYLINE
5
54
100
AcDbEntity
100
AcDbPolyline
90
4
70
1
10
18.0
20
-42.95
30
0.0
10
18.5
20
-42.95
30
0.0
10
18.5
20
-43.05
30
0.0
10
18.0
20
-43.05
30
0.0
6
Solid
370
100
62
0
0
ENDSEC
0
SECTION
2
OBJECTS
0
DICTIONARY
5
16
330
0
100
AcDbDictionary
281
1
3
ACAD_GROUP
350
17
0
DICTIONARY
5
17
330
16
100
AcDbDictionary
281
1
0
ENDSEC
0
EOF
